<?xml version="1.0" standalone="no"?>
<!DOCTYPE svg PUBLIC "-//W3C//DTD SVG 20010904//EN"
 "http://www.w3.org/TR/2001/REC-SVG-20010904/DTD/svg10.dtd">
<svg version="1.0" xmlns="http://www.w3.org/2000/svg"
 width="60pt" height="60pt" viewBox="0 0 422.000000 114.000000"
 preserveAspectRatio="xMidYMid meet">
<metadata>
Created by potrace 1.16, written by Peter Selinger 2001-2019
</metadata>
<g transform="translate(0.000000,114.000000) scale(0.100000,-0.100000)"
fill="#000000" stroke="none">
<path d="M1898 883 c-10 -2 -18 -11 -18 -19 0 -8 -12 -17 -28 -20 -26 -5 -57
-46 -44 -59 11 -10 36 -5 55 13 20 17 20 16 14 -17 -4 -18 -7 -42 -7 -52 0
-14 -7 -19 -30 -19 -16 0 -30 5 -30 10 0 22 -21 8 -50 -32 -35 -48 -38 -78
-10 -103 24 -22 25 -29 3 -50 -11 -12 -13 -19 -5 -24 8 -5 8 -30 -2 -94 -7
-48 -16 -90 -20 -94 -4 -4 -15 -2 -26 5 -12 7 -21 8 -25 2 -11 -18 -32 -11
-39 13 -7 21 -7 21 -15 2 -6 -14 -17 -20 -40 -20 -37 0 -39 7 -8 29 17 13 18
16 4 12 -29 -9 -67 4 -67 23 0 9 -5 22 -11 28 -8 8 -6 28 9 75 15 46 19 74 13
103 l-7 40 -7 -37 c-8 -36 -10 -38 -47 -38 -28 0 -40 4 -40 14 0 8 -3 23 -7
33 -6 17 -5 17 15 -1 29 -25 40 -12 20 22 -20 32 -38 40 -38 17 0 -11 -7 -15
-22 -13 -16 2 -23 -2 -22 -13 1 -12 -5 -15 -20 -12 -18 3 -18 2 3 -7 17 -7 27
-7 37 1 11 9 14 7 14 -7 0 -31 -13 -41 -47 -39 -18 1 -30 -2 -27 -7 3 -4 17
-8 31 -8 22 0 24 -3 18 -22 -3 -13 -11 -42 -17 -66 -6 -27 -14 -41 -21 -38 -7
4 -20 9 -29 12 -18 6 -23 21 -20 56 2 18 -32 43 -47 34 -5 -3 -11 -24 -15 -46
-5 -31 -11 -40 -26 -40 -21 0 -28 -26 -8 -32 18 -6 1 -38 -20 -38 -25 0 -44
23 -36 44 7 18 -21 22 -46 6 -12 -8 -10 -10 8 -10 13 0 20 -4 17 -10 -3 -5
-19 -10 -34 -10 -38 0 -70 -24 -53 -41 16 -17 16 -59 -1 -59 -8 0 -19 12 -26
26 -10 23 -15 26 -44 19 -18 -4 -48 -11 -67 -15 -23 -5 -28 -8 -12 -9 27 -1
30 -21 3 -21 -13 0 -21 -8 -23 -22 -4 -33 -45 -37 -50 -6 -3 26 -28 28 -103
10 -33 -8 -35 -10 -12 -11 40 -2 33 -21 -9 -21 -30 0 -37 -4 -45 -30 l-11 -30
-106 1 c-100 0 -106 1 -85 16 15 10 23 26 23 44 0 24 4 29 24 29 14 0 28 5 31
10 5 8 -30 9 -112 4 -125 -7 -161 -14 -75 -14 49 0 66 -10 41 -26 -8 -4 -7 -9
2 -15 7 -4 10 -11 6 -16 -4 -4 -17 -2 -27 5 -24 15 -33 15 -25 2 3 -5 1 -10
-5 -10 -6 0 -8 -4 -5 -10 3 -6 -5 -10 -18 -10 -20 0 -24 4 -20 20 4 15 0 20
-13 20 -16 0 -17 -2 -4 -10 12 -8 11 -10 -7 -10 -32 0 -29 18 5 26 53 11 58
16 29 25 -16 4 -39 4 -50 0 -12 -4 -57 -14 -100 -21 -43 -7 -80 -17 -83 -22
-3 -5 5 -6 18 -3 104 24 146 23 113 -5 -8 -7 -12 -16 -9 -21 3 -5 -35 -9 -85
-9 -88 0 -91 -1 -91 -22 0 -13 13 -45 28 -73 l27 -50 1927 -3 1928 -2 76 80
c42 44 110 105 150 136 41 31 74 59 74 62 0 5 -35 4 -550 -28 -236 -15 -339
-25 -350 -34 -10 -9 -63 -15 -166 -20 l-150 -6 -40 41 c-44 45 -38 59 28 59
68 0 238 23 238 32 0 4 -68 5 -155 2 -101 -5 -155 -4 -155 3 0 29 -152 47
-178 21 -15 -15 -16 -74 -2 -83 6 -3 10 -13 10 -21 0 -21 -106 -20 -114 2 -13
33 -6 52 22 62 17 7 21 11 10 11 -10 1 -18 6 -18 11 0 6 -9 10 -20 10 -21 0
-28 20 -7 21 6 0 3 4 -8 9 -32 14 -72 11 -79 -5 -4 -11 -21 -15 -61 -15 -49 0
-55 -2 -55 -21 0 -11 -6 -27 -14 -34 -12 -12 -15 -11 -20 8 -3 12 -1 26 4 31
15 15 12 36 -4 36 -10 0 -16 13 -18 38 l-3 37 -71 3 c-64 3 -73 5 -79 25 -4
12 -6 30 -5 40 1 9 -5 20 -14 23 -18 7 -59 -14 -51 -26 3 -5 3 -21 -1 -35 -8
-31 -44 -35 -44 -5 0 17 -7 20 -48 20 -54 0 -72 -12 -72 -49 0 -44 -7 -18 -14
52 l-7 67 31 7 c20 3 29 10 26 19 -3 7 7 20 21 29 17 12 22 20 15 27 -12 12
-35 1 -27 -13 4 -5 -1 -9 -9 -9 -9 0 -16 -7 -16 -15 0 -25 -36 -17 -48 11 -12
24 -10 26 33 45 57 25 49 42 -16 33 l-49 -7 0 39 1 39 15 -27 c16 -30 21 -32
43 -19 11 7 10 21 -9 80 -12 39 -27 70 -33 70 -7 -1 -20 -3 -29 -6z"/>
</g>
</svg>
