<?xml version="1.0" standalone="no"?>
<!DOCTYPE svg PUBLIC "-//W3C//DTD SVG 20010904//EN"
 "http://www.w3.org/TR/2001/REC-SVG-20010904/DTD/svg10.dtd">
<svg version="1.0" xmlns="http://www.w3.org/2000/svg"
 width="60.000000pt" height="60.000000pt" viewBox="0 0 1662.000000 1788.000000"
 preserveAspectRatio="xMidYMid meet">

<g transform="translate(0.000000,1788.000000) scale(0.100000,-0.100000)"
fill="#000000" stroke="none">
<path d="M6295 17875 c-5 -2 -27 -6 -47 -10 -58 -9 -97 -50 -144 -150 -86
-182 -105 -331 -63 -491 11 -43 40 -155 64 -249 38 -151 104 -338 182 -520 14
-33 88 -205 164 -381 75 -177 164 -375 197 -440 33 -66 76 -170 96 -231 20
-62 54 -154 77 -205 86 -196 108 -258 139 -388 17 -74 44 -175 60 -225 44
-139 117 -411 165 -615 24 -102 48 -197 53 -211 12 -31 37 -43 62 -29 29 16
33 82 27 517 -4 356 -7 409 -26 498 -12 55 -28 174 -36 265 -9 91 -29 314 -46
495 -24 263 -44 414 -100 745 -84 501 -88 516 -144 716 -59 204 -84 276 -165
459 -69 156 -171 319 -233 371 -59 50 -146 84 -212 83 -33 0 -64 -2 -70 -4z"/>
<path d="M10112 16696 c-163 -104 -329 -274 -488 -498 -53 -73 -119 -195 -233
-423 -217 -437 -312 -653 -361 -820 -23 -77 -79 -264 -125 -415 -99 -325 -101
-335 -159 -605 -25 -115 -58 -255 -75 -311 -38 -128 -39 -131 -111 -510 -167
-883 -273 -2150 -209 -2502 12 -68 28 -83 76 -74 34 7 42 28 53 155 5 64 15
128 20 143 6 15 24 86 40 158 49 217 90 342 222 661 255 617 299 718 515 1149
198 396 575 1071 698 1251 34 50 88 137 120 195 32 58 75 130 96 160 45 69
239 408 391 685 290 530 356 682 423 980 48 212 44 367 -12 448 -35 50 -142
139 -241 199 l-77 48 -225 -1 -225 -1 -113 -72z"/>
<path d="M4585 16433 c-116 -27 -255 -102 -321 -174 -44 -48 -101 -181 -115
-268 -6 -41 -9 -124 -7 -185 4 -102 8 -120 47 -216 59 -149 139 -309 247 -497
104 -182 147 -244 314 -458 64 -82 159 -208 210 -280 102 -140 263 -346 428
-545 57 -69 129 -161 160 -205 87 -123 604 -913 641 -980 18 -33 52 -87 76
-120 23 -33 81 -127 129 -210 49 -82 105 -172 125 -200 20 -27 55 -81 76 -120
21 -38 79 -133 128 -210 50 -77 106 -171 127 -210 20 -38 52 -95 71 -125 20
-30 55 -91 79 -135 24 -44 66 -114 95 -155 29 -41 60 -90 69 -108 32 -62 106
-256 106 -278 0 -24 45 -74 67 -74 8 0 28 13 44 30 l30 30 -5 92 c-4 51 -11
175 -17 276 -6 101 -15 209 -20 240 -5 31 -18 136 -29 232 -10 96 -28 222 -39
280 -11 58 -25 141 -31 185 -35 252 -82 497 -111 575 -51 141 -199 770 -223
951 -10 78 -23 127 -50 190 -21 46 -62 154 -93 239 -98 276 -245 622 -300 707
-19 29 -93 174 -166 321 -73 147 -156 302 -185 345 -170 253 -338 450 -562
663 -217 205 -364 299 -565 363 -103 32 -120 35 -260 37 -82 1 -159 0 -170 -3z"/>
<path d="M8725 15887 c-11 -7 -36 -20 -55 -27 -78 -30 -199 -107 -258 -164
-87 -84 -121 -133 -180 -261 -45 -96 -54 -129 -77 -265 -14 -85 -55 -313 -90
-507 -128 -702 -117 -597 -122 -1188 -5 -535 0 -631 34 -755 14 -50 24 -68 46
-80 27 -14 29 -14 51 11 22 25 23 36 30 260 7 267 17 380 47 529 33 165 88
408 111 485 28 98 109 298 165 408 25 51 76 160 112 242 37 83 80 171 97 195
86 128 250 569 265 710 17 169 -13 298 -89 382 -37 41 -56 46 -87 25z"/>
<path d="M12200 15375 c-171 -36 -316 -119 -520 -295 -141 -122 -183 -164
-284 -285 -219 -262 -358 -454 -540 -745 -71 -113 -194 -302 -273 -420 -80
-118 -167 -248 -193 -290 -69 -111 -257 -446 -427 -765 -83 -154 -189 -341
-235 -415 -257 -407 -551 -1019 -619 -1283 -11 -42 -27 -93 -36 -111 -21 -44
-11 -81 24 -94 16 -5 37 -6 48 -2 19 7 85 81 85 95 0 4 26 46 57 93 61 94 109
149 334 391 80 86 214 237 299 336 85 99 189 219 231 266 42 48 85 99 95 115
90 144 1310 1348 2239 2208 188 174 256 249 336 371 77 116 93 170 93 310 -1
97 -4 118 -30 184 -33 84 -79 142 -126 162 -31 12 -207 108 -291 159 -48 28
-172 36 -267 15z"/>
<path d="M14735 14813 c-45 -12 -404 -157 -470 -190 -205 -103 -445 -255 -676
-428 -97 -73 -209 -151 -248 -175 -149 -86 -501 -407 -550 -502 -24 -44 -24
-47 -8 -72 10 -14 26 -26 37 -26 10 0 83 33 162 74 79 41 179 87 222 101 44
15 123 46 175 70 110 49 220 85 261 85 16 0 82 16 147 35 154 46 554 143 618
151 28 3 68 12 90 19 22 8 94 26 160 40 161 36 223 55 405 128 134 54 161 69
206 112 72 71 84 122 55 237 -12 46 -34 110 -51 143 -33 68 -73 99 -205 162
-77 37 -84 38 -195 40 -63 1 -124 -1 -135 -4z"/>
<path d="M1667 14665 c-55 -21 -157 -96 -209 -154 -88 -98 -147 -275 -135
-405 9 -98 56 -214 132 -326 94 -139 160 -208 353 -367 192 -158 323 -254 612
-446 218 -146 520 -354 845 -583 209 -146 284 -195 400 -259 39 -21 104 -64
145 -95 41 -31 167 -121 280 -200 113 -79 252 -182 310 -229 58 -47 128 -101
155 -121 158 -111 445 -373 853 -778 132 -131 173 -159 217 -142 54 20 47 38
-57 161 -70 83 -67 78 -188 289 -46 80 -119 204 -162 275 -44 72 -122 201
-173 288 -97 162 -204 325 -284 433 -25 33 -89 129 -141 213 -52 84 -141 217
-196 295 -56 78 -143 208 -193 289 -115 183 -186 282 -282 394 -41 48 -86 104
-99 123 -13 19 -42 55 -65 80 -23 25 -88 108 -145 185 -113 151 -245 295 -313
341 -23 16 -82 62 -130 103 -48 41 -174 141 -280 223 -159 123 -214 159 -322
212 -166 82 -393 172 -481 192 -100 23 -396 29 -447 9z"/>
<path d="M4340 13899 c-49 -20 -80 -62 -119 -163 -87 -224 -79 -288 57 -440
93 -104 211 -204 311 -263 122 -72 227 -149 316 -233 39 -36 84 -75 100 -85
35 -22 72 -56 250 -227 72 -68 183 -168 247 -222 64 -53 132 -118 151 -144 19
-26 63 -79 98 -117 100 -109 360 -413 416 -485 95 -124 189 -314 214 -437 11
-54 11 -75 -4 -148 -16 -87 -48 -164 -76 -188 -9 -8 -32 -20 -51 -27 -54 -21
-62 -29 -55 -64 9 -40 30 -56 76 -56 32 0 43 7 75 43 87 100 124 250 124 506
0 102 -6 180 -16 226 -8 39 -19 97 -25 130 -16 98 -238 491 -411 728 -38 51
-84 117 -104 147 -41 62 -160 213 -244 310 -31 36 -70 85 -87 110 -17 25 -116
135 -218 245 -103 110 -229 250 -280 310 -143 170 -400 426 -470 468 -114 67
-223 98 -275 76z"/>
<path d="M14875 13304 c-144 -11 -365 -38 -447 -55 -51 -11 -138 -29 -193 -40
-108 -22 -342 -97 -483 -155 -48 -20 -130 -51 -182 -69 -208 -71 -904 -399
-1125 -530 -44 -26 -147 -85 -230 -132 -82 -47 -220 -133 -305 -191 -85 -59
-221 -150 -301 -203 -133 -88 -353 -267 -596 -486 l-82 -74 18 -52 c30 -84 43
-107 66 -113 32 -8 82 17 150 76 58 50 278 166 459 241 90 38 724 226 936 279
213 52 314 67 557 81 153 9 228 9 333 0 277 -25 594 -87 821 -160 68 -22 174
-53 235 -70 123 -34 237 -74 424 -149 182 -73 498 -132 845 -158 144 -10 355
34 443 93 76 52 249 269 310 389 47 92 74 347 49 454 -22 92 -143 348 -218
460 -68 101 -204 246 -282 299 -144 98 -508 198 -892 245 -148 18 -245 24
-310 20z"/>
<path d="M802 12885 c-31 -14 -109 -76 -192 -155 -44 -42 -79 -138 -87 -240
-5 -61 -3 -70 36 -145 121 -236 371 -366 1146 -596 392 -116 525 -159 570
-182 22 -11 94 -35 160 -53 66 -19 192 -59 280 -90 88 -31 225 -79 305 -107
144 -50 270 -105 343 -149 43 -25 63 -20 85 25 11 22 10 31 -2 55 -24 46 -144
190 -164 196 -11 4 -23 15 -28 26 -14 29 -592 589 -711 688 -173 144 -323 246
-491 332 -27 14 -62 34 -78 46 -70 49 -202 112 -514 244 -236 99 -554 150
-658 105z"/>
<path d="M12902 11525 c-279 -71 -406 -122 -639 -256 -243 -140 -580 -378
-597 -423 -25 -65 22 -71 150 -20 117 47 314 109 428 133 121 26 409 37 576
22 69 -6 199 -16 290 -22 90 -5 201 -17 245 -24 140 -25 148 -24 221 46 80 78
108 132 108 215 0 80 -36 153 -111 228 -82 81 -134 104 -284 121 -182 22 -236
19 -387 -20z"/>
<path d="M455 11230 c-226 -13 -306 -40 -397 -138 -57 -61 -71 -110 -41 -150
41 -55 187 -126 293 -142 30 -5 174 -14 320 -20 255 -12 271 -11 430 10 300
41 752 28 1110 -32 184 -31 188 -31 220 -18 22 9 30 19 30 37 0 31 -29 93 -43
93 -6 0 -24 12 -39 27 -16 15 -47 32 -71 39 -23 6 -64 21 -92 32 -47 19 -201
56 -340 82 -33 7 -132 30 -220 52 -88 21 -247 60 -355 85 l-195 45 -230 3
c-126 2 -297 -1 -380 -5z"/>
<path d="M12780 10633 c-114 -5 -481 -44 -605 -63 -339 -54 -1041 -303 -1496
-530 -139 -70 -489 -264 -614 -340 -86 -53 -451 -312 -507 -361 -54 -46 -62
-78 -26 -103 30 -21 74 -20 125 4 55 24 220 65 348 85 116 18 555 17 980 -3
138 -6 385 -16 550 -22 165 -6 390 -17 500 -25 433 -31 585 -35 825 -25 230
10 415 29 495 51 116 31 205 63 259 92 75 40 242 198 267 252 24 53 25 161 1
240 -40 130 -141 301 -244 411 -54 58 -191 160 -264 197 -48 25 -345 129 -379
133 -59 7 -151 10 -215 7z"/>
<path d="M860 10390 c-215 -20 -425 -74 -549 -141 -126 -66 -224 -175 -256
-282 -8 -28 -15 -89 -15 -136 0 -105 11 -127 107 -206 153 -128 343 -177 868
-225 121 -11 240 -22 265 -26 25 -3 299 -9 610 -14 311 -4 756 -12 990 -19
234 -6 652 -15 930 -21 345 -6 535 -14 600 -24 52 -8 158 -17 235 -21 265 -12
638 -64 776 -109 41 -13 108 -29 149 -35 87 -14 221 -57 335 -108 91 -41 153
-47 185 -18 29 26 26 62 -7 79 -16 7 -72 30 -126 51 -54 20 -189 78 -300 129
-111 51 -220 99 -242 106 -22 7 -47 18 -55 25 -8 7 -208 86 -445 175 -236 89
-500 191 -585 225 -85 35 -365 133 -622 219 -493 165 -568 185 -983 256 -93
16 -215 38 -270 50 -54 11 -178 32 -275 47 -171 26 -188 27 -705 29 -291 1
-568 -2 -615 -6z"/>
<path d="M8875 9990 c-207 -56 -257 -83 -401 -223 -117 -112 -144 -162 -189
-353 -20 -82 -44 -161 -54 -177 -27 -43 -117 -113 -195 -152 -78 -40 -126 -44
-196 -19 -59 21 -184 117 -223 172 -30 41 -32 49 -38 170 -7 143 -14 165 -87
250 -93 111 -247 199 -361 209 -80 7 -123 -9 -226 -82 -131 -94 -169 -161
-181 -320 -9 -111 5 -154 127 -375 126 -231 152 -304 147 -416 -3 -71 -8 -91
-42 -158 -74 -145 -149 -206 -256 -206 -69 0 -135 27 -260 105 -187 116 -263
140 -411 133 -77 -4 -94 -9 -208 -62 -213 -99 -222 -108 -240 -240 -27 -193
-11 -250 84 -303 80 -44 111 -52 261 -63 103 -8 139 -15 179 -34 59 -29 129
-96 156 -148 21 -42 68 -80 118 -97 64 -21 118 -14 215 30 117 53 139 59 208
60 82 2 145 -23 212 -82 73 -66 90 -98 81 -158 -9 -63 -96 -241 -159 -323
-101 -133 -120 -172 -167 -348 -15 -54 -23 -114 -24 -165 0 -69 4 -86 27 -125
14 -25 49 -67 76 -94 l50 -49 83 7 c45 4 93 12 106 17 42 16 209 147 270 213
96 101 127 193 179 525 32 201 144 381 238 381 33 0 101 -43 157 -100 78 -77
90 -118 98 -335 l7 -170 47 -80 c25 -44 53 -91 61 -105 9 -14 28 -45 44 -70
21 -35 42 -52 92 -77 119 -59 305 -81 366 -44 119 73 223 338 171 437 -18 34
-93 107 -237 231 -125 107 -210 197 -233 246 -24 49 -22 153 3 224 22 63 57
111 113 157 70 56 187 52 294 -11 55 -32 161 -145 220 -235 64 -97 187 -224
279 -288 140 -97 265 -140 411 -140 112 0 172 15 240 59 76 49 203 169 242
228 27 40 31 55 31 114 0 96 -28 165 -89 222 -61 57 -129 91 -309 156 -79 28
-201 80 -270 115 -70 36 -152 76 -182 89 -52 23 -130 89 -151 128 -12 24 2 31
140 69 140 38 181 59 246 124 57 57 81 101 95 174 15 80 0 113 -78 171 -91 69
-157 93 -257 95 -124 2 -236 -46 -419 -179 -58 -42 -138 -67 -198 -63 -57 4
-70 31 -71 152 -1 75 3 99 21 137 60 121 148 182 502 341 30 14 86 51 123 82
38 31 72 56 77 56 13 0 80 98 106 154 28 60 29 88 8 175 -21 86 -34 109 -86
160 -57 56 -118 91 -187 107 -82 20 -242 17 -326 -6z"/>
<path d="M12290 8694 c-41 -2 -185 -8 -320 -14 -260 -12 -865 -50 -1165 -74
-99 -8 -227 -18 -285 -21 -239 -14 -520 -65 -562 -102 -9 -8 -32 -22 -50 -31
-44 -23 -50 -61 -12 -91 15 -11 33 -21 41 -21 7 0 31 -9 51 -19 36 -18 41 -19
95 -4 53 15 67 15 269 -12 117 -15 278 -40 358 -55 80 -16 168 -31 195 -35 28
-4 77 -14 110 -22 33 -8 98 -21 145 -28 189 -30 483 -99 751 -175 427 -122
453 -130 734 -230 512 -181 772 -257 968 -281 159 -20 331 -1 432 47 97 45
205 205 205 302 0 68 -27 158 -80 267 -62 130 -109 182 -213 238 -45 25 -112
65 -148 89 -36 25 -99 56 -140 70 -238 83 -513 156 -689 185 -92 14 -510 25
-690 17z"/>
<path d="M3655 8490 c-44 -5 -114 -13 -155 -19 -41 -6 -129 -11 -195 -11 -162
-1 -350 -16 -432 -35 -38 -9 -151 -32 -253 -51 -218 -41 -493 -111 -603 -154
-167 -64 -459 -225 -522 -287 -17 -17 -44 -37 -60 -46 -42 -21 -196 -183 -228
-238 -48 -82 -46 -273 3 -368 46 -91 210 -124 451 -91 119 16 221 52 414 142
94 44 244 114 335 155 91 41 174 80 186 88 27 17 436 232 584 307 135 68 485
220 620 270 176 65 254 88 453 128 200 41 310 49 390 31 33 -8 39 -6 57 16 11
14 20 38 20 52 0 52 -15 58 -150 65 -69 4 -233 15 -365 26 -316 25 -453 30
-550 20z"/>
<path d="M5570 7694 c-30 -8 -190 -59 -356 -114 -252 -84 -336 -107 -525 -144
-601 -119 -840 -185 -1474 -411 -88 -31 -306 -108 -485 -170 -179 -62 -361
-127 -405 -145 -230 -92 -513 -239 -644 -335 -47 -34 -131 -91 -186 -126 -55
-34 -147 -99 -205 -143 -188 -145 -537 -511 -581 -611 -10 -22 -30 -87 -45
-145 -50 -191 -35 -303 49 -383 61 -56 130 -80 248 -85 115 -5 144 1 242 49
81 40 251 155 387 264 63 50 144 111 180 135 36 24 103 78 150 120 136 122
253 217 278 224 12 4 22 11 22 16 0 4 37 35 83 68 45 33 123 97 172 142 181
166 374 311 900 676 96 67 207 138 247 159 40 21 105 59 143 85 130 87 479
260 706 350 57 23 226 95 376 161 266 116 276 120 534 183 345 86 395 111 335
171 -29 29 -63 31 -146 9z"/>
<path d="M14412 7153 c-26 -5 -49 -37 -58 -80 -6 -28 -1 -36 47 -82 40 -37 67
-53 104 -62 28 -7 68 -25 91 -40 23 -15 65 -39 95 -52 73 -32 362 -195 479
-270 197 -126 415 -322 598 -538 140 -165 229 -235 389 -305 41 -17 82 -39 92
-48 46 -42 189 -50 237 -14 51 38 105 92 120 120 25 48 14 193 -27 349 -19 70
-29 87 -117 196 -144 178 -198 234 -292 306 -202 153 -392 256 -560 302 -52
14 -151 44 -220 65 -249 78 -432 118 -665 146 -114 13 -263 17 -313 7z"/>
<path d="M12999 7117 c-13 -5 -48 -6 -76 -3 -44 5 -56 3 -73 -14 -28 -28 -25
-57 11 -99 16 -20 48 -58 69 -86 21 -27 89 -111 150 -185 451 -546 603 -804
700 -1190 23 -91 57 -217 75 -280 19 -64 59 -226 90 -360 65 -290 72 -316 135
-485 69 -186 167 -397 250 -535 80 -134 216 -286 350 -393 118 -95 147 -105
383 -136 163 -22 303 31 519 196 109 83 179 195 219 351 36 143 25 261 -55
577 -38 150 -111 315 -223 502 -30 51 -69 128 -88 172 -18 45 -46 98 -62 118
-16 21 -71 100 -122 175 -231 341 -523 649 -886 934 -362 283 -480 368 -583
417 -37 18 -88 47 -114 65 -63 43 -311 167 -373 185 -27 8 -100 30 -161 49
-84 26 -117 32 -135 25z"/>
<path d="M5820 6860 c-216 -41 -507 -115 -685 -176 -104 -36 -236 -78 -292
-94 -194 -56 -652 -243 -893 -366 -191 -97 -406 -278 -456 -382 -28 -59 1
-178 50 -204 11 -7 50 -17 85 -24 90 -17 180 7 322 86 59 33 118 64 130 70 31
13 48 24 144 92 44 31 139 92 210 137 72 44 164 107 205 140 289 229 966 552
1282 611 86 17 157 75 141 116 -7 20 -124 17 -243 -6z"/>
<path d="M10277 6862 c-9 -10 -17 -27 -17 -37 0 -12 81 -101 198 -220 265
-268 746 -783 884 -947 62 -73 192 -218 289 -323 98 -104 200 -219 227 -255
27 -36 78 -97 113 -135 35 -39 96 -113 135 -165 134 -181 335 -363 446 -405
75 -28 166 -17 264 31 43 21 86 50 96 64 9 14 26 61 37 104 l21 79 -31 91
c-51 153 -102 247 -219 407 -152 206 -203 264 -318 355 -53 43 -169 139 -257
214 -153 131 -240 201 -461 372 -54 43 -134 106 -176 140 -98 81 -337 232
-475 302 -60 30 -149 78 -200 108 -50 30 -140 76 -200 102 -59 27 -144 65
-188 87 -103 49 -145 57 -168 31z"/>
<path d="M7606 6508 c-21 -70 -49 -204 -62 -296 -8 -63 -29 -162 -46 -220 -16
-59 -67 -253 -114 -432 -46 -179 -106 -408 -133 -510 -68 -261 -129 -510 -147
-610 -8 -47 -39 -191 -69 -320 -30 -129 -84 -388 -120 -575 -36 -187 -90 -455
-120 -595 -96 -449 -136 -723 -157 -1070 -23 -398 32 -792 131 -941 81 -119
282 -317 419 -409 78 -53 235 -110 302 -110 84 0 225 60 300 127 90 81 143
233 186 533 20 143 31 508 23 753 -14 380 -81 1107 -115 1242 -24 98 -71 433
-119 860 -25 220 -50 427 -55 460 -45 294 -76 1458 -48 1805 7 80 12 183 12
230 l1 85 -33 3 c-20 2 -34 -2 -36 -10z"/>
<path d="M5680 6254 c-155 -44 -184 -55 -360 -134 -248 -110 -434 -200 -515
-247 -39 -22 -130 -73 -204 -113 -228 -123 -801 -522 -1061 -739 -156 -130
-497 -472 -662 -661 -227 -263 -312 -375 -546 -721 -126 -186 -333 -608 -416
-847 -89 -258 -91 -266 -91 -547 0 -191 4 -280 18 -375 37 -251 70 -332 197
-480 97 -113 108 -123 185 -161 53 -25 71 -29 150 -29 50 0 107 5 127 10 20 6
85 43 144 82 83 55 126 93 195 172 150 169 208 261 365 571 81 160 184 358
229 440 45 83 108 215 140 295 71 176 797 1631 926 1855 134 234 295 488 343
542 23 27 53 66 67 88 89 138 648 733 774 824 81 59 155 131 155 153 0 19 -37
49 -60 47 -8 -1 -53 -12 -100 -25z"/>
<path d="M9229 5924 c-7 -9 -14 -34 -14 -54 0 -32 9 -47 51 -92 109 -115 184
-252 369 -668 70 -157 169 -369 221 -472 52 -103 121 -254 155 -334 82 -199
161 -357 211 -424 118 -157 256 -258 340 -247 133 18 196 267 123 491 -85 262
-140 364 -418 781 -165 247 -237 338 -452 570 -67 72 -148 162 -180 200 -33
39 -69 76 -79 84 -11 8 -49 41 -84 73 -35 32 -69 58 -76 58 -6 0 -32 11 -58
25 -54 29 -90 32 -109 9z"/>
<path d="M10283 5839 c-34 -34 -9 -87 100 -221 68 -84 243 -347 369 -555 147
-245 266 -518 380 -873 27 -85 78 -238 113 -340 35 -102 67 -198 71 -215 4
-16 17 -50 29 -75 12 -25 25 -65 29 -90 9 -65 63 -235 97 -307 16 -34 29 -66
29 -71 0 -5 13 -42 30 -81 16 -40 34 -100 40 -134 14 -73 73 -234 123 -334 67
-132 284 -377 399 -449 37 -23 56 -28 138 -32 149 -7 246 10 341 59 69 36 84
49 109 93 51 89 74 208 74 391 1 181 -8 224 -91 453 -117 327 -293 620 -608
1017 -61 77 -160 208 -220 290 -154 213 -265 342 -535 624 -130 135 -269 281
-310 325 -106 111 -481 430 -586 498 -51 32 -104 44 -121 27z"/>
<path d="M6404 5118 c-61 -64 -114 -148 -230 -359 -130 -238 -345 -651 -422
-812 -27 -57 -82 -158 -122 -223 -213 -346 -402 -792 -453 -1068 -19 -105 -22
-154 -21 -366 0 -233 1 -250 26 -336 48 -171 88 -233 178 -279 120 -60 159
-55 249 34 43 42 70 81 104 151 59 121 144 416 192 666 20 104 63 300 95 435
33 135 77 353 100 485 22 131 50 284 63 339 137 587 225 931 304 1188 34 110
36 121 22 145 -21 39 -49 38 -85 0z"/>
<path d="M8815 5007 c-7 -26 6 -267 30 -567 8 -102 19 -304 25 -450 8 -177 19
-318 35 -425 13 -88 34 -241 46 -340 11 -99 36 -263 54 -365 19 -102 41 -241
50 -310 29 -226 55 -323 193 -725 83 -243 127 -364 203 -560 67 -173 302 -639
367 -730 283 -394 381 -471 667 -520 147 -25 254 -16 403 36 118 40 165 67
215 123 70 78 82 138 62 299 -45 369 -137 621 -485 1332 -108 221 -196 383
-493 910 -22 39 -68 123 -103 187 -78 144 -206 362 -332 568 -142 232 -179
298 -218 395 -45 113 -65 152 -153 299 -39 65 -118 214 -175 331 -78 158 -114
220 -142 246 -70 64 -82 79 -118 157 -61 130 -59 127 -93 130 -27 3 -33 -1
-38 -21z"/>
<path d="M1866 4101 c-4 -7 -5 -15 -2 -18 9 -9 19 4 14 18 -4 11 -6 11 -12 0z"/>
</g>
</svg>
