<?xml version="1.0" standalone="no"?>
<!DOCTYPE svg PUBLIC "-//W3C//DTD SVG 20010904//EN"
 "http://www.w3.org/TR/2001/REC-SVG-20010904/DTD/svg10.dtd">
<svg version="1.0" xmlns="http://www.w3.org/2000/svg"
 width="60pt" height="60pt" viewBox="0 0 455.000000 109.000000"
 preserveAspectRatio="xMidYMid meet">
<metadata>
Created by potrace 1.16, written by Peter Selinger 2001-2019
</metadata>
<g transform="translate(0.000000,109.000000) scale(0.100000,-0.100000)"
fill="currentColor" stroke="none">
<path d="M1166 1044 c-12 -31 -6 -45 17 -43 12 1 34 1 50 1 l27 -2 0 -94 0
-94 -30 -11 c-16 -5 -30 -14 -30 -20 0 -5 -3 -16 -6 -25 -5 -12 0 -16 19 -16
14 0 27 6 30 13 8 24 14 2 9 -40 -4 -39 -7 -43 -32 -43 -16 0 -30 6 -32 12 -6
16 -25 -3 -50 -49 -22 -38 -23 -67 -3 -83 16 -13 21 -60 6 -60 -5 0 -6 -21 -3
-46 4 -40 2 -46 -17 -51 -25 -6 -27 -16 -6 -37 32 -32 19 -46 -45 -46 -53 0
-60 2 -60 20 0 22 -22 25 -95 12 -38 -7 -39 -8 -15 -17 16 -6 -121 -11 -400
-15 -234 -3 -431 -9 -438 -13 -17 -11 -15 -30 3 -23 27 10 45 -5 45 -39 0 -30
-3 -33 -42 -39 -32 -5 -39 -9 -28 -16 12 -8 12 -12 3 -18 -9 -6 -2 -18 25 -44
20 -20 47 -41 59 -47 13 -6 26 -23 29 -36 l6 -25 2087 0 2086 1 44 79 c24 44
68 106 97 139 30 32 54 64 54 70 0 8 -185 11 -642 12 -354 0 -634 4 -624 8 37
14 -34 29 -122 25 -76 -3 -82 -2 -100 21 -27 34 -35 31 -27 -6 7 -31 7 -32
-21 -23 -16 4 -69 8 -118 8 -84 -1 -91 1 -112 25 l-23 26 -1 -37 c0 -20 6 -39
13 -41 6 -3 -68 -6 -165 -6 -152 -1 -178 1 -178 14 0 12 17 15 92 15 50 0 88
3 84 8 -9 9 -168 22 -296 25 -89 2 -95 1 -98 -18 -2 -15 5 -24 25 -32 26 -10
23 -11 -30 -12 l-58 -1 3 43 3 42 100 5 100 5 -100 8 c-55 5 -109 12 -120 17
-30 14 -157 18 -182 7 -33 -15 -29 -44 7 -52 26 -6 30 -11 30 -41 0 -31 -3
-34 -30 -34 -16 0 -29 3 -28 8 1 4 -4 33 -11 65 -10 46 -10 68 0 106 9 35 9
53 1 67 -6 10 -12 14 -12 7 0 -8 -19 -13 -52 -14 -29 0 -75 -2 -103 -2 l-50
-2 0 67 c-1 59 2 67 20 72 16 5 17 8 6 15 -8 5 -20 7 -28 4 -10 -4 -11 3 -7
27 5 22 3 35 -7 41 -37 23 -87 -7 -69 -41 14 -26 13 -33 -4 -27 -8 3 -20 -1
-26 -9 -10 -11 -9 -14 3 -14 13 0 15 -9 12 -45 -3 -24 0 -47 5 -50 6 -3 10
-15 10 -26 0 -27 -51 -26 -68 1 -7 12 -8 20 -2 20 5 0 10 5 10 10 0 6 -9 10
-20 10 -16 0 -19 -5 -13 -30 4 -24 2 -30 -11 -30 -13 0 -16 -5 -10 -22 3 -13
10 -28 15 -34 4 -5 6 -20 2 -32 -7 -28 -43 -30 -43 -2 0 17 -7 20 -50 20 -46
0 -50 -2 -57 -27 l-7 -28 -7 25 c-4 14 -7 42 -8 63 -1 34 2 38 28 43 21 5 27
11 24 24 -3 10 2 20 11 23 17 7 22 37 6 37 -5 0 -10 -7 -10 -15 0 -8 -7 -15
-15 -15 -8 0 -15 -7 -15 -15 0 -22 -23 -18 -38 5 -16 26 -9 37 34 55 47 20 35
36 -21 28 l-45 -6 0 34 c0 33 0 33 16 11 12 -17 19 -20 33 -12 18 9 18 12 -2
80 -20 65 -23 71 -44 65 -23 -5 -23 -5 -23 105 l0 110 -49 0 c-35 0 -51 -4
-55 -16z"/>
</g>
</svg>
