<?xml version="1.0" standalone="no"?>
<!DOCTYPE svg PUBLIC "-//W3C//DTD SVG 20010904//EN"
 "http://www.w3.org/TR/2001/REC-SVG-20010904/DTD/svg10.dtd">
<svg version="1.0" xmlns="http://www.w3.org/2000/svg"
 width="60pt" height="60pt" viewBox="0 0 395.000000 94.000000"
 preserveAspectRatio="xMidYMid meet">
<metadata>
Created by potrace 1.16, written by Peter Selinger 2001-2019
</metadata>
<g transform="translate(0.000000,94.000000) scale(0.100000,-0.100000)"
fill="#000000" stroke="none">
<path d="M1660 842 l0 -62 -32 0 -32 0 31 -32 c30 -33 31 -34 31 -143 1 -74
-3 -112 -11 -117 -9 -6 -8 -10 3 -17 18 -12 11 -19 -29 -31 -18 -5 -33 -5 -36
1 -4 5 -20 9 -36 9 -29 0 -30 -2 -24 -30 11 -49 -1 -70 -41 -70 -24 0 -34 5
-34 15 0 8 -6 15 -13 15 -22 0 -37 46 -38 113 l-2 62 -7 -67 c-7 -70 -22 -100
-46 -91 -8 3 -17 -3 -21 -13 -6 -19 -49 -64 -59 -64 -3 0 -4 12 -2 28 3 24 0
27 -27 27 -29 0 -30 -1 -27 -42 3 -38 1 -44 -23 -53 -38 -14 -45 -13 -45 10 0
15 7 20 25 20 20 0 25 5 25 25 0 14 -8 29 -19 35 -29 15 -152 12 -181 -5 -17
-10 -57 -14 -122 -15 -59 0 -98 -4 -98 -10 0 -6 39 -10 98 -10 l98 0 -4 -40
-4 -40 -47 1 c-25 1 -36 4 -23 6 24 5 30 31 10 51 -17 17 -176 15 -208 -3 -16
-9 -59 -15 -120 -16 l-95 -2 105 -11 105 -10 -260 -8 c-238 -7 -312 -3 -387
18 -14 4 -18 -1 -18 -21 0 -62 49 -113 135 -137 42 -13 50 -19 57 -46 8 -29
12 -32 50 -32 25 0 49 -7 60 -17 13 -11 18 -12 18 -3 0 10 12 11 52 4 53 -9
3273 -8 3314 1 12 3 47 41 84 95 35 50 81 106 102 126 22 20 38 37 36 38 -1 1
-109 -1 -238 -5 -390 -12 -524 -12 -528 0 -3 8 28 11 97 11 61 0 101 4 101 10
0 6 -41 10 -102 10 -75 1 -108 5 -122 15 -13 9 -46 16 -90 17 -64 2 -66 2 -18
5 89 7 47 23 -58 23 -55 0 -102 4 -105 10 -7 11 -163 14 -189 4 -9 -3 -16 -17
-16 -30 0 -19 5 -24 25 -24 21 0 25 -5 25 -30 0 -33 -7 -36 -45 -18 -20 9 -25
18 -25 48 l0 38 -55 7 c-43 5 -55 10 -55 24 0 23 -58 41 -129 41 -44 0 -51 -3
-51 -20 0 -27 -18 -25 -22 3 -2 15 -11 23 -28 25 -26 4 -53 22 -32 22 7 0 12
11 12 24 0 18 8 27 33 36 17 7 26 14 20 17 -7 2 -13 13 -13 24 0 13 -7 19 -22
19 -12 0 -18 3 -15 7 9 8 -24 32 -45 33 -16 0 -18 12 -20 83 -1 45 -3 98 -4
117 -1 19 -3 43 -3 53 -1 12 -9 17 -31 17 -37 0 -38 -14 -5 -36 28 -18 30 -42
19 -164 -6 -58 -10 -67 -32 -78 -14 -7 -32 -12 -39 -12 -21 0 -15 -31 7 -37
15 -4 18 -11 13 -37 -3 -17 -10 -37 -16 -44 -7 -9 -5 -16 7 -25 12 -9 17 -23
14 -47 -3 -30 -7 -35 -31 -38 -41 -5 -67 22 -67 69 0 43 -18 89 -34 89 -6 0
-27 -4 -46 -9 -19 -5 -47 -12 -62 -15 -16 -4 -28 -11 -28 -18 0 -6 -7 -16 -16
-23 -13 -9 -14 -16 -7 -31 6 -10 11 -51 12 -90 l2 -71 -32 -7 c-17 -3 -47 -6
-65 -6 -33 0 -34 1 -34 44 0 30 5 46 15 50 25 9 18 36 -11 36 -14 0 -34 5 -46
11 -18 10 -20 20 -20 122 1 175 -5 358 -12 364 -3 4 -6 -21 -6 -55z"/>
</g>
</svg>
