<?xml version="1.0" standalone="no"?>
<!DOCTYPE svg PUBLIC "-//W3C//DTD SVG 20010904//EN"
 "http://www.w3.org/TR/2001/REC-SVG-20010904/DTD/svg10.dtd">
<svg version="1.0" xmlns="http://www.w3.org/2000/svg"
 width="60pt" height="60pt" viewBox="0 0 348.000000 83.000000"
 preserveAspectRatio="xMidYMid meet">
<metadata>
Created by potrace 1.16, written by Peter Selinger 2001-2019
</metadata>
<g transform="translate(0.000000,83.000000) scale(0.100000,-0.100000)"
fill="currentColor" stroke="none">
<path d="M1740 721 c0 -11 8 -22 18 -24 16 -4 16 -5 0 -6 -10 0 -18 -5 -18
-11 0 -5 8 -14 18 -19 9 -6 13 -11 7 -11 -5 0 -3 -5 5 -10 13 -8 12 -11 -5
-24 -18 -14 -18 -15 -2 -16 19 0 24 -20 5 -20 -9 0 -8 -4 2 -10 12 -8 13 -11
1 -19 -11 -7 -11 -9 0 -14 8 -3 1 -6 -15 -6 l-29 -1 23 -25 c29 -31 38 -104
15 -121 -8 -6 -13 -24 -12 -40 l2 -29 -129 -3 c-141 -3 -156 2 -156 50 0 26
-2 29 -15 18 -8 -7 -15 -19 -15 -26 0 -8 -5 -14 -10 -14 -6 0 -9 3 -9 8 3 20
-2 32 -16 32 -8 0 -15 -9 -15 -20 0 -11 -4 -20 -10 -20 -5 0 -10 -16 -10 -35
0 -31 -3 -35 -25 -35 -14 0 -25 -5 -25 -11 0 -13 -395 -2 -422 13 -11 5 -18
20 -18 38 0 27 -3 30 -31 30 -29 0 -30 -2 -24 -29 5 -25 3 -29 -21 -34 -14 -2
-38 2 -53 9 -52 28 -91 12 -91 -37 0 -24 -4 -27 -53 -33 -28 -3 -74 -5 -102
-5 l-50 1 42 9 c48 9 104 52 80 62 -16 6 -40 -6 -36 -19 1 -5 -8 -14 -19 -20
-16 -8 -36 -6 -86 10 -35 12 -62 24 -60 28 3 4 0 9 -5 12 -5 3 -11 -3 -14 -14
-3 -13 -14 -20 -29 -20 -12 0 -32 -7 -42 -15 -21 -16 -15 -20 34 -28 14 -2
-11 -5 -56 -6 -74 -1 -82 1 -104 24 -31 33 -54 33 -46 0 8 -32 -13 -33 -60 -4
-19 11 -34 19 -34 17 0 -2 7 -25 15 -52 8 -27 15 -63 15 -80 0 -17 5 -48 11
-68 l10 -38 1608 0 1609 0 81 89 c45 49 81 92 81 96 0 3 -94 3 -210 -1 -155
-5 -210 -4 -210 5 0 6 -15 11 -33 11 -18 0 -38 5 -44 11 -9 9 -26 9 -69 1 -60
-12 -74 -10 -74 14 0 10 12 14 40 14 22 0 40 5 40 10 0 6 -16 8 -40 4 -29 -5
-45 -2 -58 8 -9 9 -32 18 -49 21 -36 7 -53 -11 -53 -57 0 -20 -5 -26 -22 -27
-13 0 -52 -3 -87 -5 -56 -5 -63 -4 -57 11 3 9 6 19 6 21 0 2 7 4 15 4 10 0 15
10 15 30 l0 30 -80 0 -80 0 0 -30 c0 -19 5 -30 14 -30 12 0 31 -28 24 -35 -2
-2 -29 -6 -60 -10 -40 -5 -58 -4 -58 4 0 6 -7 11 -15 11 -8 0 -15 -4 -15 -10
0 -5 -7 -10 -15 -10 -11 0 -15 20 -17 97 -3 93 -4 98 -26 101 -13 2 -19 8 -16
14 4 6 1 9 -7 6 -8 -3 -13 -15 -12 -27 2 -18 -2 -21 -35 -21 l-38 0 0 43 c1
36 -2 42 -21 45 -13 2 -23 8 -23 13 0 5 -7 9 -15 9 -15 0 -21 -42 -16 -117 2
-24 -2 -33 -13 -33 -12 0 -16 10 -16 40 0 22 -4 40 -10 40 -5 0 -10 7 -10 15
0 22 -28 18 -35 -5 -3 -11 -15 -20 -25 -20 -14 0 -20 11 -25 50 -4 27 -11 52
-16 56 -17 10 -9 24 15 24 25 0 51 23 43 37 -3 5 -37 7 -77 6 -77 -2 -91 11
-33 31 43 15 46 19 32 50 -15 33 -39 34 -39 1 0 -16 -6 -25 -15 -25 -8 0 -15
6 -15 14 0 8 -3 21 -6 30 -5 12 0 16 18 16 33 0 39 8 26 36 -10 21 -18 24 -60
24 -41 0 -48 -3 -48 -19z"/>
</g>
</svg>
