<?xml version="1.0" standalone="no"?>
<!DOCTYPE svg PUBLIC "-//W3C//DTD SVG 20010904//EN"
 "http://www.w3.org/TR/2001/REC-SVG-20010904/DTD/svg10.dtd">
<svg version="1.0" xmlns="http://www.w3.org/2000/svg"
 width="60pt" height="60pt" viewBox="0 0 3214.000000 750.000000"
 preserveAspectRatio="xMidYMid meet">
<metadata>
Created by potrace 1.16, written by Peter Selinger 2001-2019
</metadata>
<g transform="translate(0.000000,750.000000) scale(0.100000,-0.100000)"
fill="currentColor" stroke="none">
<path d="M15020 6705 c0 -788 0 -795 -20 -795 -20 0 -20 -7 -20 -655 l0 -655
-40 0 c-36 0 -40 -2 -40 -25 0 -20 -5 -25 -25 -25 -24 0 -25 2 -25 65 l0 65
-90 0 -90 0 0 504 0 504 21 -5 c12 -3 24 -2 28 3 3 5 18 17 34 27 l27 17 0
125 0 125 -27 0 -28 0 3 106 c2 59 -1 110 -5 113 -5 3 -14 22 -19 41 l-10 35
-79 3 -79 3 -48 -53 -48 -53 2 -98 c3 -87 1 -97 -14 -97 -16 0 -18 -11 -18
-102 0 -99 1 -102 29 -127 15 -14 34 -37 40 -50 10 -18 19 -22 42 -19 l29 5 0
-504 0 -503 -95 0 -95 0 0 -40 0 -40 -415 0 -415 0 0 770 0 770 50 0 51 0 -3
88 -3 87 -40 5 -40 5 0 65 0 65 -62 3 -63 3 0 -931 0 -930 -359 0 c-307 0
-360 2 -371 15 -7 8 -30 18 -52 21 -21 4 -41 11 -44 15 -11 18 -102 10 -138
-12 -20 -12 -36 -25 -36 -30 0 -5 -24 -9 -52 -9 -49 1 -55 3 -73 33 -14 22
-32 35 -58 41 -20 5 -37 13 -37 18 0 4 -36 8 -80 8 -68 0 -84 -3 -105 -22 -16
-13 -25 -32 -25 -50 0 -27 -1 -28 -56 -28 -60 0 -144 -18 -144 -30 0 -4 -12
-11 -27 -15 -14 -3 -36 -14 -49 -23 -12 -9 -32 -24 -45 -32 -38 -25 -159 -144
-159 -157 0 -7 -6 -16 -12 -20 -24 -15 -93 -146 -103 -196 -4 -17 -11 -36 -15
-42 -4 -5 -13 -38 -20 -72 -7 -35 -16 -63 -20 -63 -4 0 -13 -20 -20 -45 -7
-25 -16 -45 -21 -45 -4 0 -13 -16 -19 -35 -6 -19 -15 -35 -20 -35 -5 0 -12 -9
-15 -21 -10 -32 -60 -105 -112 -164 l-22 -25 -3133 0 c-2055 0 -3136 4 -3142
10 -13 13 -1809 14 -1834 1 -9 -5 -104 -15 -209 -22 -106 -6 -193 -15 -193
-19 0 -3 -57 -12 -127 -19 -71 -7 -132 -17 -138 -21 -5 -4 -54 -13 -107 -20
-54 -7 -98 -16 -98 -20 0 -4 -40 -13 -90 -20 -49 -7 -90 -16 -90 -20 0 -4 -34
-13 -75 -20 -41 -7 -75 -16 -75 -20 0 -4 -31 -13 -70 -20 -38 -7 -70 -16 -70
-20 0 -4 -27 -13 -60 -20 -33 -7 -60 -16 -60 -21 0 -4 -25 -13 -55 -20 -30 -7
-55 -16 -55 -20 0 -4 -22 -12 -50 -19 -27 -7 -50 -15 -50 -20 0 -4 -20 -13
-45 -20 -25 -7 -45 -16 -45 -20 0 -4 -20 -13 -45 -20 -25 -7 -45 -16 -45 -21
0 -4 -14 -10 -30 -14 -17 -4 -30 -11 -30 -16 0 -6 -4 -7 -10 -4 -5 3 -10 1
-10 -4 0 -6 -5 -11 -10 -11 -13 0 -170 -89 -188 -107 -7 -7 -24 -16 -37 -19
-13 -3 -26 -12 -29 -20 -3 -8 -10 -14 -17 -14 -6 0 -24 -10 -39 -22 -15 -13
-37 -30 -50 -38 -13 -8 -33 -24 -46 -35 -13 -11 -39 -31 -57 -45 -42 -33 -246
-237 -274 -275 -40 -55 -58 -77 -73 -94 -9 -9 -22 -31 -29 -49 -7 -18 -16 -32
-20 -32 -4 0 -22 -29 -40 -65 -19 -36 -37 -68 -41 -70 -4 -2 -13 -25 -20 -50
-7 -25 -16 -45 -19 -45 -4 0 -13 -22 -20 -50 -7 -27 -17 -52 -21 -55 -5 -3
-12 -26 -16 -50 -3 -25 -10 -48 -15 -51 -5 -3 -9 -79 -9 -170 0 -124 4 -178
16 -217 28 -88 93 -228 112 -240 6 -4 12 -13 12 -19 0 -5 11 -24 25 -42 14
-17 34 -41 43 -53 38 -51 152 -161 232 -225 105 -84 95 -77 155 -115 28 -18
55 -36 60 -41 6 -4 25 -14 43 -21 17 -7 32 -17 32 -20 0 -4 29 -22 65 -39 35
-18 67 -36 70 -41 3 -5 19 -12 35 -16 17 -4 30 -10 30 -14 0 -4 18 -14 40 -21
22 -7 40 -16 40 -20 0 -4 20 -13 45 -20 25 -7 45 -16 45 -20 0 -5 23 -14 50
-21 28 -7 50 -16 50 -20 0 -4 23 -13 50 -20 28 -7 50 -16 50 -20 0 -4 15 -10
33 -13 17 -3 44 -12 58 -20 14 -7 49 -19 78 -26 28 -6 51 -15 51 -19 0 -4 29
-13 65 -20 36 -7 65 -16 65 -20 0 -5 31 -13 70 -20 38 -7 70 -16 70 -20 0 -5
34 -14 75 -21 41 -7 75 -16 75 -20 0 -4 38 -12 85 -19 47 -7 85 -16 85 -20 0
-4 43 -13 95 -20 52 -8 95 -17 95 -21 0 -4 52 -13 115 -20 63 -7 115 -16 115
-20 0 -4 57 -12 128 -19 70 -7 136 -16 147 -21 22 -9 277 -30 373 -30 34 0 64
-5 67 -10 8 -13 19691 -14 19699 -1 3 4 84 14 181 21 96 7 175 16 175 20 0 4
77 13 170 20 94 8 170 16 170 20 0 4 69 13 153 20 83 7 157 16 162 20 6 5 76
14 158 21 81 7 147 15 147 19 0 4 66 13 148 20 81 7 149 16 152 20 3 4 69 14
148 21 78 7 142 16 142 20 0 4 61 13 135 20 74 7 135 16 135 19 0 4 61 13 135
20 74 7 135 16 135 20 0 4 59 13 130 20 72 7 130 16 130 20 0 4 55 13 123 20
67 7 127 16 132 20 6 4 62 13 125 20 63 7 120 16 125 20 6 4 63 13 128 20 64
7 117 16 117 20 0 4 51 12 113 19 61 7 117 16 122 21 6 4 60 13 120 20 61 7
115 16 120 20 6 4 57 13 115 20 58 7 110 15 115 19 9 6 75 17 325 56 52 8 102
18 110 21 8 4 51 13 95 20 235 39 291 50 300 55 6 4 55 12 110 19 55 7 105 16
110 20 6 5 55 14 110 20 55 7 105 16 110 20 6 5 56 14 113 21 56 7 102 16 102
20 0 4 47 13 105 19 58 7 105 16 105 21 0 4 47 13 105 20 58 7 105 16 105 19
0 4 46 13 103 20 56 7 105 18 109 24 14 21 228 -217 228 -253 0 -6 3 -11 8
-11 4 0 23 -30 42 -68 19 -37 38 -69 41 -72 9 -9 69 -136 69 -148 0 -7 5 -12
10 -12 6 0 10 -6 10 -12 0 -7 11 -36 25 -65 14 -29 36 -77 50 -106 14 -29 25
-58 25 -65 0 -6 5 -12 10 -12 6 0 10 -6 10 -12 0 -7 12 -35 25 -63 14 -27 25
-56 25 -62 0 -7 5 -13 11 -13 5 0 7 -4 4 -10 -3 -5 -2 -10 3 -10 6 0 13 -12
16 -26 14 -56 2 -54 445 -54 l411 0 0 592 0 592 58 53 c31 29 60 53 65 53 4 0
7 21 7 48 l0 47 247 -3 c137 -1 258 0 271 3 12 3 22 13 22 23 0 14 10 17 64
17 l64 0 4 -128 c2 -71 8 -131 14 -135 6 -4 16 -22 23 -40 10 -23 22 -34 45
-40 29 -8 32 -12 38 -63 7 -56 33 -115 61 -144 26 -26 69 -15 86 20 8 17 17
32 22 35 10 7 29 115 29 167 0 24 5 43 10 43 6 0 10 20 10 45 0 25 -4 45 -10
45 -5 0 -10 19 -10 43 0 61 -20 161 -33 169 -7 4 32 8 86 8 58 0 97 4 97 10 0
5 3 9 8 8 18 -4 84 34 126 74 59 57 60 83 7 135 -55 53 -66 61 -98 75 -15 7
-31 17 -35 23 -4 5 -47 12 -96 13 l-89 4 14 51 c7 28 13 77 13 109 0 32 4 58
10 58 6 0 10 18 10 40 0 22 -4 40 -10 40 -5 0 -10 19 -10 43 0 53 -18 155 -30
171 -36 44 -59 66 -72 66 -21 0 -57 -37 -64 -65 -3 -14 -10 -25 -14 -25 -4 0
-10 -17 -14 -39 -5 -32 -10 -39 -35 -44 -21 -4 -36 -19 -57 -54 -28 -47 -28
-51 -29 -200 l0 -153 -66 0 c-58 0 -67 3 -72 19 -4 18 -17 20 -187 23 -168 3
-183 4 -196 23 -26 37 -48 66 -63 85 -9 11 -27 35 -41 55 -14 20 -32 44 -41
55 -8 10 -24 31 -35 45 -10 15 -28 37 -39 49 -11 13 -27 33 -35 46 -8 12 -27
38 -42 58 l-28 35 0 647 0 647 73 8 c39 3 77 10 82 15 6 4 49 13 98 20 48 7
87 15 87 19 0 4 34 13 75 20 41 7 75 16 75 20 0 5 19 11 42 15 23 4 49 12 57
19 8 7 16 11 17 10 9 -6 169 55 209 79 17 10 38 18 48 18 9 0 17 4 17 9 0 5 9
13 21 16 30 10 21 52 -16 73 -16 9 -35 23 -43 29 -7 7 -24 16 -38 19 -13 3
-24 10 -24 14 0 5 -22 14 -50 21 -27 7 -50 16 -50 20 0 4 -25 13 -55 20 -30 7
-55 15 -55 20 0 4 -29 13 -65 20 -36 7 -65 16 -65 19 0 4 -34 13 -75 20 -41 7
-75 16 -75 20 0 5 -38 14 -85 21 -47 7 -85 15 -85 19 0 4 -42 13 -92 20 -51 7
-97 16 -103 20 -5 4 -61 14 -122 21 -62 7 -113 15 -113 19 0 4 -69 13 -152 20
-84 7 -155 16 -158 20 -8 12 -390 30 -623 30 -208 0 -400 -14 -422 -30 -5 -4
-40 -13 -77 -20 -38 -7 -68 -15 -68 -19 0 -4 -20 -13 -45 -20 -25 -7 -45 -17
-45 -21 0 -5 -9 -11 -20 -15 -32 -10 -107 -89 -135 -143 -14 -27 -28 -72 -32
-101 -3 -28 -10 -51 -14 -51 -5 0 -9 -11 -9 -25 0 -14 5 -25 10 -25 6 0 10
-12 10 -26 0 -33 20 -114 29 -114 3 0 12 -13 19 -29 16 -37 91 -110 119 -117
13 -4 23 -10 23 -14 0 -5 17 -14 38 -21 20 -6 39 -15 42 -19 14 -19 143 -30
362 -30 l238 0 12 -25 c6 -14 15 -25 19 -25 4 0 13 -16 20 -35 7 -19 16 -35
20 -35 3 0 12 -21 18 -47 7 -27 17 -56 22 -65 11 -21 12 -188 1 -188 -4 0 -13
-28 -19 -62 -7 -33 -16 -64 -20 -67 -5 -3 -15 -25 -21 -48 -7 -24 -16 -43 -20
-43 -5 0 -14 -16 -21 -35 -7 -19 -16 -35 -20 -35 -5 0 -14 -13 -21 -30 -7 -16
-16 -30 -20 -30 -4 0 -12 -11 -18 -25 -11 -24 -26 -42 -112 -140 -25 -28 -53
-61 -62 -74 -14 -20 -22 -22 -57 -16 -23 4 -41 10 -41 14 0 5 -34 14 -75 21
-41 7 -75 16 -75 19 0 4 -34 13 -75 20 -41 7 -77 16 -79 20 -3 5 -39 14 -81
21 -41 7 -75 16 -75 20 0 4 -38 13 -85 20 -47 7 -85 16 -85 20 0 4 -36 13 -80
20 -44 7 -80 16 -80 20 0 4 -38 12 -85 19 -47 7 -85 16 -85 20 0 4 -40 13 -90
20 -49 7 -90 16 -90 20 0 4 -43 13 -95 20 -52 8 -95 17 -95 20 0 4 -43 13 -95
20 -52 8 -95 17 -95 21 0 4 -45 13 -100 20 -55 7 -100 15 -100 19 0 4 -44 13
-97 20 -54 7 -102 16 -108 20 -5 4 -55 13 -110 20 -55 7 -104 16 -110 21 -5 4
-39 11 -75 14 -36 4 -87 13 -115 21 -27 7 -84 17 -125 20 -41 4 -80 11 -85 15
-6 5 -60 14 -120 21 -61 6 -115 15 -120 20 -6 4 -65 13 -133 20 -67 7 -122 16
-122 20 0 4 -61 12 -135 19 -74 7 -135 16 -135 20 0 4 -65 13 -145 20 -80 7
-145 16 -145 20 0 4 -66 13 -147 20 -82 7 -152 16 -158 20 -5 4 -83 13 -172
20 -90 7 -163 16 -163 20 0 4 -81 13 -180 20 -99 7 -180 16 -180 20 0 4 -88
13 -195 20 -107 7 -195 16 -195 20 0 4 -99 13 -220 20 -121 7 -220 16 -220 20
0 3 -111 12 -247 20 -137 7 -250 16 -253 20 -11 17 -617 29 -1455 30 -566 0
-883 4 -889 10 -6 6 -350 10 -970 10 -529 0 -1086 3 -1239 7 -249 6 -280 8
-299 25 -12 10 -25 18 -29 18 -4 0 -14 6 -21 13 -7 8 -25 20 -40 28 -27 14
-199 111 -228 129 -41 24 -218 110 -229 110 -6 0 -11 5 -11 10 0 6 -5 10 -11
10 -6 0 -33 11 -59 24 -26 13 -61 27 -79 31 -17 3 -31 10 -31 15 0 4 -12 11
-27 15 -15 3 -47 15 -70 26 -24 11 -57 22 -73 26 -17 3 -30 9 -30 13 0 5 -22
13 -50 20 -27 7 -50 15 -50 20 0 4 -27 13 -60 20 -33 7 -60 16 -60 20 0 4 -25
12 -55 19 -30 7 -57 16 -60 20 -2 5 -32 14 -65 21 -33 7 -60 16 -60 20 0 3
-29 12 -65 19 -36 7 -65 16 -65 20 0 5 -31 13 -70 20 -38 7 -70 16 -70 20 0 4
-36 14 -80 21 -44 7 -80 16 -80 20 0 4 -43 12 -95 19 -52 8 -95 17 -95 20 0 4
-42 13 -92 20 -51 7 -97 16 -103 21 -5 4 -50 13 -100 20 -49 7 -94 16 -100 20
-5 4 -53 13 -105 20 -52 7 -100 16 -105 20 -6 5 -26 10 -45 12 l-35 3 -5 150
-5 150 -60 3 -60 3 3 358 c2 351 3 359 23 364 18 5 20 12 17 74 l-3 68 -47 3
c-47 3 -48 4 -48 37 0 33 1 34 48 37 l47 3 3 53 3 52 -50 0 -51 0 0 155 0 155
-25 0 -25 0 0 -175 0 -175 -39 0 c-52 0 -55 -10 -46 -181 l7 -139 39 0 39 0 0
-345 0 -345 -58 0 c-58 0 -59 -1 -78 -37 -10 -21 -22 -40 -26 -43 -4 -3 -11
-18 -17 -33 -8 -20 -17 -27 -38 -27 l-28 0 3 655 c2 651 2 655 -18 655 -20 0
-20 5 -20 795 l0 795 -35 0 -35 0 0 -795z"/>
</g>
</svg>
